<svg width="112" height="47" viewBox="0 0 112 47" fill="none" xmlns="http://www.w3.org/2000/svg">
<g filter="url(#filter0_d_801_5220)">
<path d="M36.45 4.00002H3.95V39H17.3L36.45 20.6V4.00002ZM30.45 18.2L14.65 33.35H9.95V9.65002H30.45V18.2Z" fill="white"/>
<path d="M71.2488 9.65002V4.00002H41.4988V39H71.2488V33.35H47.4988V23.85H70.9488V18.2H47.4988V9.65002H71.2488Z" fill="white"/>
<path d="M108.783 7.60002L104.633 3.40002L91.1832 17.25L77.6832 3.40002L73.5332 7.60002L87.0832 21.5L73.5332 35.4L77.6832 39.6L91.1832 25.75L104.633 39.6L108.783 35.4L95.2332 21.5L108.783 7.60002Z" fill="white"/>
</g>
<g filter="url(#filter1_d_801_5220)">
<path d="M108.25 4.2L104.1 0L90.65 13.85L77.15 0L73 4.2L86.55 18.1L73 32L77.15 36.2L90.65 22.35L104.1 36.2L108.25 32L94.7 18.1L108.25 4.2Z" fill="#1890FF"/>
</g>
<defs>
<filter id="filter0_d_801_5220" x="0.950001" y="3.40002" width="110.833" height="43.2" filterUnits="userSpaceOnUse" color-interpolation-filters="sRGB">
<feFlood flood-opacity="0" result="BackgroundImageFix"/>
<feColorMatrix in="SourceAlpha" type="matrix" values="0 0 0 0 0 0 0 0 0 0 0 0 0 0 0 0 0 0 127 0" result="hardAlpha"/>
<feOffset dy="4"/>
<feGaussianBlur stdDeviation="1.5"/>
<feComposite in2="hardAlpha" operator="out"/>
<feColorMatrix type="matrix" values="0 0 0 0 0 0 0 0 0 0 0 0 0 0 0 0 0 0 0.25 0"/>
<feBlend mode="normal" in2="BackgroundImageFix" result="effect1_dropShadow_801_5220"/>
<feBlend mode="normal" in="SourceGraphic" in2="effect1_dropShadow_801_5220" result="shape"/>
</filter>
<filter id="filter1_d_801_5220" x="70" y="0" width="41.25" height="43.2" filterUnits="userSpaceOnUse" color-interpolation-filters="sRGB">
<feFlood flood-opacity="0" result="BackgroundImageFix"/>
<feColorMatrix in="SourceAlpha" type="matrix" values="0 0 0 0 0 0 0 0 0 0 0 0 0 0 0 0 0 0 127 0" result="hardAlpha"/>
<feOffset dy="4"/>
<feGaussianBlur stdDeviation="1.5"/>
<feComposite in2="hardAlpha" operator="out"/>
<feColorMatrix type="matrix" values="0 0 0 0 0 0 0 0 0 0 0 0 0 0 0 0 0 0 0.25 0"/>
<feBlend mode="normal" in2="BackgroundImageFix" result="effect1_dropShadow_801_5220"/>
<feBlend mode="normal" in="SourceGraphic" in2="effect1_dropShadow_801_5220" result="shape"/>
</filter>
</defs>
</svg>
